<svg xmlns="http://www.w3.org/2000/svg" width="32" height="40" viewBox="0 0 32 40">
  <g id="Combined_Shape" data-name="Combined Shape" fill="#fff" stroke-miterlimit="10">
    <path d="M 7.011899948120117 39.29959869384766 L 0.9882001280784607 39.29959869384766 C 0.8292901515960693 39.29959869384766 0.7000001668930054 39.17031097412109 0.7000001668930054 39.01139831542969 L 0.7000001668930054 20.59289932250977 C 0.7000001668930054 20.43399047851563 0.8292901515960693 20.3046989440918 0.9882001280784607 20.3046989440918 L 7.011899948120117 20.3046989440918 C 7.170810222625732 20.3046989440918 7.300100326538086 20.43399047851563 7.300100326538086 20.59289932250977 L 7.300100326538086 39.01139831542969 C 7.300100326538086 39.17031097412109 7.170810222625732 39.29959869384766 7.011899948120117 39.29959869384766 Z M 31.01130104064941 38.66690063476563 L 24.98760032653809 38.66690063476563 C 24.82917976379395 38.66690063476563 24.7003002166748 38.53802108764648 24.7003002166748 38.37960052490234 L 24.7003002166748 0.9881997108459473 C 24.7003002166748 0.8292897343635559 24.82917976379395 0.6999997496604919 24.98760032653809 0.6999997496604919 L 31.01130104064941 0.6999997496604919 C 31.17020988464355 0.6999997496604919 31.29949951171875 0.8292897343635559 31.29949951171875 0.9881997108459473 L 31.29949951171875 38.37960052490234 C 31.29949951171875 38.53802108764648 31.17020988464355 38.66690063476563 31.01130104064941 38.66690063476563 Z M 19.01160049438477 38.66690063476563 L 12.98789978027344 38.66690063476563 C 12.82898998260498 38.66690063476563 12.69970035552979 38.53802108764648 12.69970035552979 38.37960052490234 L 12.69970035552979 8.892899513244629 C 12.69970035552979 8.733989715576172 12.82898998260498 8.604700088500977 12.98789978027344 8.604700088500977 L 19.01160049438477 8.604700088500977 C 19.17050933837891 8.604700088500977 19.29980087280273 8.733989715576172 19.29980087280273 8.892899513244629 L 19.29980087280273 38.37960052490234 C 19.29980087280273 38.53802108764648 19.17050933837891 38.66690063476563 19.01160049438477 38.66690063476563 Z" stroke="none"/>
    <path d="M 6.600100040435791 38.5995979309082 L 6.600100040435791 21.00469970703125 L 1.400000095367432 21.00469970703125 L 1.400000095367432 38.5995979309082 L 6.600100040435791 38.5995979309082 M 30.59950065612793 37.96689987182617 L 30.59950065612793 1.399999737739563 L 25.40030097961426 1.399999737739563 L 25.40030097961426 37.96689987182617 L 30.59950065612793 37.96689987182617 M 18.59980010986328 37.96689987182617 L 18.59980010986328 9.304699897766113 L 13.39970016479492 9.304699897766113 L 13.39970016479492 37.96689987182617 L 18.59980010986328 37.96689987182617 M 7.011899948120117 39.99959945678711 L 0.9882001280784607 39.99959945678711 C 0.4428001344203949 39.99959945678711 1.373290956507844e-07 39.55770111083984 1.373290956507844e-07 39.01139831542969 L 1.373290956507844e-07 20.59289932250977 C 1.373290956507844e-07 20.04660034179688 0.4428001344203949 19.60470008850098 0.9882001280784607 19.60470008850098 L 7.011899948120117 19.60470008850098 C 7.557300090789795 19.60470008850098 8.000100135803223 20.04660034179688 8.000100135803223 20.59289932250977 L 8.000100135803223 39.01139831542969 C 8.000100135803223 39.55770111083984 7.557300090789795 39.99959945678711 7.011899948120117 39.99959945678711 Z M 31.01130104064941 39.36690139770508 L 24.98760032653809 39.36690139770508 C 24.44219970703125 39.36690139770508 24.00029945373535 38.92499923706055 24.00029945373535 38.37960052490234 L 24.00029945373535 0.9881997108459473 C 24.00029945373535 0.4427997171878815 24.44219970703125 -2.716064386731887e-07 24.98760032653809 -2.716064386731887e-07 L 31.01130104064941 -2.716064386731887e-07 C 31.5576000213623 -2.716064386731887e-07 31.9995002746582 0.4427997171878815 31.9995002746582 0.9881997108459473 L 31.9995002746582 38.37960052490234 C 31.9995002746582 38.92499923706055 31.5576000213623 39.36690139770508 31.01130104064941 39.36690139770508 Z M 19.01160049438477 39.36690139770508 L 12.98789978027344 39.36690139770508 C 12.44250011444092 39.36690139770508 11.99970054626465 38.92499923706055 11.99970054626465 38.37960052490234 L 11.99970054626465 8.892899513244629 C 11.99970054626465 8.347499847412109 12.44250011444092 7.904699802398682 12.98789978027344 7.904699802398682 L 19.01160049438477 7.904699802398682 C 19.55789947509766 7.904699802398682 19.99979972839355 8.347499847412109 19.99979972839355 8.892899513244629 L 19.99979972839355 38.37960052490234 C 19.99979972839355 38.92499923706055 19.55789947509766 39.36690139770508 19.01160049438477 39.36690139770508 Z" stroke="none" fill="#8290b0"/>
  </g>
</svg>
