<svg id="Component_15_1" data-name="Component 15 – 1" xmlns="http://www.w3.org/2000/svg" width="53.143" height="44.549" viewBox="0 0 53.143 44.549">
  <g id="Combined_Shape" data-name="Combined Shape" transform="translate(32 40) rotate(180)" fill="#fff" stroke-miterlimit="10">
    <path d="M 31.01130104064941 39.29959869384766 L 24.98760032653809 39.29959869384766 C 24.82917976379395 39.29959869384766 24.7003002166748 39.17031097412109 24.7003002166748 39.01139831542969 L 24.7003002166748 1.620899677276611 C 24.7003002166748 1.461989760398865 24.82917976379395 1.332699775695801 24.98760032653809 1.332699775695801 L 31.01130104064941 1.332699775695801 C 31.17020988464355 1.332699775695801 31.29949951171875 1.461989760398865 31.29949951171875 1.620899677276611 L 31.29949951171875 39.01139831542969 C 31.29949951171875 39.17031097412109 31.17020988464355 39.29959869384766 31.01130104064941 39.29959869384766 Z M 19.01160049438477 31.39489936828613 L 12.98789978027344 31.39489936828613 C 12.82898998260498 31.39489936828613 12.69970035552979 31.26560974121094 12.69970035552979 31.10669898986816 L 12.69970035552979 1.620899677276611 C 12.69970035552979 1.461989760398865 12.82898998260498 1.332699775695801 12.98789978027344 1.332699775695801 L 19.01160049438477 1.332699775695801 C 19.17050933837891 1.332699775695801 19.29980087280273 1.461989760398865 19.29980087280273 1.620899677276611 L 19.29980087280273 31.10669898986816 C 19.29980087280273 31.26560974121094 19.17050933837891 31.39489936828613 19.01160049438477 31.39489936828613 Z M 7.011899948120117 19.69490051269531 L 0.9882001280784607 19.69490051269531 C 0.8292901515960693 19.69490051269531 0.7000001668930054 19.56601905822754 0.7000001668930054 19.40760040283203 L 0.7000001668930054 0.9881997108459473 C 0.7000001668930054 0.8292897343635559 0.8292901515960693 0.6999997496604919 0.9882001280784607 0.6999997496604919 L 7.011899948120117 0.6999997496604919 C 7.170810222625732 0.6999997496604919 7.300100326538086 0.8292897343635559 7.300100326538086 0.9881997108459473 L 7.300100326538086 19.40760040283203 C 7.300100326538086 19.56601905822754 7.170810222625732 19.69490051269531 7.011899948120117 19.69490051269531 Z" stroke="none"/>
    <path d="M 30.59950065612793 38.5995979309082 L 30.59950065612793 2.032699823379517 L 25.40030097961426 2.032699823379517 L 25.40030097961426 38.5995979309082 L 30.59950065612793 38.5995979309082 M 18.59980010986328 30.69490051269531 L 18.59980010986328 2.032699823379517 L 13.39970016479492 2.032699823379517 L 13.39970016479492 30.69490051269531 L 18.59980010986328 30.69490051269531 M 6.600100040435791 18.99489974975586 L 6.600100040435791 1.399999737739563 L 1.400000095367432 1.399999737739563 L 1.400000095367432 18.99489974975586 L 6.600100040435791 18.99489974975586 M 31.01130104064941 39.99959945678711 L 24.98760032653809 39.99959945678711 C 24.44219970703125 39.99959945678711 24.00029945373535 39.55770111083984 24.00029945373535 39.01139831542969 L 24.00029945373535 1.620899677276611 C 24.00029945373535 1.074599742889404 24.44219970703125 0.632699728012085 24.98760032653809 0.632699728012085 L 31.01130104064941 0.632699728012085 C 31.5576000213623 0.632699728012085 31.9995002746582 1.074599742889404 31.9995002746582 1.620899677276611 L 31.9995002746582 39.01139831542969 C 31.9995002746582 39.55770111083984 31.5576000213623 39.99959945678711 31.01130104064941 39.99959945678711 Z M 19.01160049438477 32.09489822387695 L 12.98789978027344 32.09489822387695 C 12.44250011444092 32.09489822387695 11.99970054626465 31.652099609375 11.99970054626465 31.10669898986816 L 11.99970054626465 1.620899677276611 C 11.99970054626465 1.074599742889404 12.44250011444092 0.632699728012085 12.98789978027344 0.632699728012085 L 19.01160049438477 0.632699728012085 C 19.55789947509766 0.632699728012085 19.99979972839355 1.074599742889404 19.99979972839355 1.620899677276611 L 19.99979972839355 31.10669898986816 C 19.99979972839355 31.652099609375 19.55789947509766 32.09489822387695 19.01160049438477 32.09489822387695 Z M 7.011899948120117 20.39489936828613 L 0.9882001280784607 20.39489936828613 C 0.4428001344203949 20.39489936828613 1.373290956507844e-07 19.95299911499023 1.373290956507844e-07 19.40760040283203 L 1.373290956507844e-07 0.9881997108459473 C 1.373290956507844e-07 0.4427997171878815 0.4428001344203949 -2.716064386731887e-07 0.9882001280784607 -2.716064386731887e-07 L 7.011899948120117 -2.716064386731887e-07 C 7.557300090789795 -2.716064386731887e-07 8.000100135803223 0.4427997171878815 8.000100135803223 0.9881997108459473 L 8.000100135803223 19.40760040283203 C 8.000100135803223 19.95299911499023 7.557300090789795 20.39489936828613 7.011899948120117 20.39489936828613 Z" stroke="none" fill="#8290b0"/>
  </g>
  <g id="iconfinder_recent_history_replay_repeat_5402415" transform="translate(43.757 44.549) rotate(-150)">
    <path id="Path_11616" data-name="Path 11616" d="M9.854,0a9.207,9.207,0,0,0-7.02,3.247L1.558,2.112A.939.939,0,0,0,0,2.816V6.569a.938.938,0,0,0,.938.938H5.162a.939.939,0,0,0,.619-1.642L4.233,4.486A7.377,7.377,0,0,1,9.864,1.877,7.508,7.508,0,1,1,2.787,11.891a.939.939,0,0,0-1.774.619A9.385,9.385,0,1,0,9.854,0Z" transform="translate(0 0)" fill="#fff"/>
    <path id="Path_11617" data-name="Path 11617" d="M4.693,8.446a.938.938,0,0,1-.563-.188L.375,5.443A.939.939,0,0,1,0,4.692V.938a.939.939,0,0,1,1.877,0V4.223L5.256,6.757a.938.938,0,0,1-.563,1.689Z" transform="translate(8.681 4.693)" fill="#fff"/>
  </g>
</svg>
