<svg xmlns="http://www.w3.org/2000/svg" width="65.965" height="69.145" viewBox="0 0 65.965 69.145">
  <g id="league">
    <path id="Path_11612" data-name="Path 11612" d="M226.909,162.4a4.542,4.542,0,1,0,4.542,4.542A4.547,4.547,0,0,0,226.909,162.4Zm0,7.058a2.516,2.516,0,1,1,2.516-2.516A2.519,2.519,0,0,1,226.909,169.461Z" transform="translate(-193.927 -140.471)" fill="#fff"/>
    <path id="Path_11613" data-name="Path 11613" d="M25.407,38.579a1.013,1.013,0,0,0-1.013,1.013v7.091H17.362A1.013,1.013,0,0,0,16.349,47.7v5.885H14.041a2.27,2.27,0,0,0-2.267,2.267V66.878a2.27,2.27,0,0,0,2.267,2.267h6.641a2.27,2.27,0,0,0,2.267-2.267V55.848a2.27,2.27,0,0,0-2.267-2.267H18.374V48.709H32.44v4.872H30.132a2.27,2.27,0,0,0-2.267,2.267V66.878a2.27,2.27,0,0,0,2.267,2.267h6.641a2.27,2.27,0,0,0,2.267-2.267V55.848a2.27,2.27,0,0,0-2.267-2.267H34.466V47.7a1.013,1.013,0,0,0-1.013-1.013H26.42V40.605H63.092v6.078H56.059A1.013,1.013,0,0,0,55.047,47.7v5.885H52.739a2.27,2.27,0,0,0-2.267,2.267V66.878a2.27,2.27,0,0,0,2.267,2.267H59.38a2.27,2.27,0,0,0,2.267-2.267V55.848a2.27,2.27,0,0,0-2.267-2.267H57.072V48.709H71.138v4.872H68.83a2.27,2.27,0,0,0-2.267,2.267V66.878a2.27,2.27,0,0,0,2.267,2.267h6.641a2.27,2.27,0,0,0,2.267-2.267V64.22a1.013,1.013,0,1,0-2.026,0v2.658a.244.244,0,0,1-.241.241H68.83a.245.245,0,0,1-.241-.241V55.848a.245.245,0,0,1,.241-.241h6.641a.245.245,0,0,1,.241.241v3.645a1.013,1.013,0,0,0,2.026,0V55.848a2.27,2.27,0,0,0-2.267-2.267H73.164V47.7a1.013,1.013,0,0,0-1.013-1.013H65.118V39.592a1.013,1.013,0,0,0-1.013-1.013H45.769v-4.1a8.089,8.089,0,0,0,6.593-5.3,1.013,1.013,0,0,0-1.909-.678,6.045,6.045,0,1,1,0-4.049,1.013,1.013,0,0,0,1.909-.678,8.089,8.089,0,0,0-6.593-5.3V17.427h2.9a1.906,1.906,0,0,0,1.9-1.9V13.668a1.9,1.9,0,0,0-.6-1.385l6.677-8.989A2.064,2.064,0,0,0,54.993,0H50.435a2.073,2.073,0,0,0-1.657.833L44.756,6.248,40.734.833A2.072,2.072,0,0,0,39.078,0H34.52a2.064,2.064,0,0,0-1.657,3.294l6.677,8.989a1.9,1.9,0,0,0-.6,1.385v1.856a1.906,1.906,0,0,0,1.9,1.9h2.9v1.041a8.069,8.069,0,0,0,0,16.011v4.1H25.407ZM20.682,55.607a.245.245,0,0,1,.241.241V66.878a.245.245,0,0,1-.241.241H14.041a.245.245,0,0,1-.241-.241V55.848a.245.245,0,0,1,.241-.241Zm16.092,0a.245.245,0,0,1,.241.241V66.878a.245.245,0,0,1-.241.241H30.132a.245.245,0,0,1-.241-.241V55.848a.245.245,0,0,1,.241-.241Zm22.606,0a.245.245,0,0,1,.241.241V66.878a.245.245,0,0,1-.241.241H52.739a.245.245,0,0,1-.241-.241V55.848a.245.245,0,0,1,.241-.241ZM45.569,8.551,50.4,2.041a.038.038,0,0,1,.031-.015h4.558c.016,0,.023,0,.034.021a.029.029,0,0,1,0,.039l-7.188,9.678H43.183ZM34.49,2.086a.029.029,0,0,1,0-.039c.01-.021.018-.021.034-.021h4.558a.038.038,0,0,1,.03.015l4.386,5.906-2.326,3.131ZM40.965,15.4V13.79h7.583V15.4Z" transform="translate(-11.774 0)" fill="#fff"/>
  </g>
</svg>
