<svg xmlns="http://www.w3.org/2000/svg" width="38.655" height="38.368" viewBox="0 0 38.655 38.368">
  <g id="logout" transform="translate(1.6 1.6)">
    <path id="Path" d="M25.032,9.111l.014-.014a.548.548,0,0,0,.057-.079c.007-.007.007-.014.014-.022.014-.029.036-.057.05-.086a.025.025,0,0,1,.007-.014c.014-.029.029-.057.043-.093,0-.007,0-.007.007-.014.014-.029.022-.065.036-.1,0-.007,0-.014.007-.014a.5.5,0,0,0,.022-.1.065.065,0,0,1,.007-.036c.007-.029.007-.057.014-.086a1.041,1.041,0,0,0,0-.244.36.36,0,0,0-.014-.086.065.065,0,0,0-.007-.036c-.007-.036-.014-.065-.022-.1,0-.007,0-.014-.007-.014a.563.563,0,0,0-.036-.1c0-.007,0-.007-.007-.014-.014-.029-.029-.065-.043-.093a.025.025,0,0,0-.007-.014.535.535,0,0,0-.05-.086c-.007-.007-.007-.014-.014-.022a.752.752,0,0,0-.057-.079l-.014-.014a1.019,1.019,0,0,0-.086-.093L17.846.361A1.233,1.233,0,0,0,16.1,2.105l5,5H1.235a1.231,1.231,0,1,0,0,2.462h19.87l-4.96,4.96a1.231,1.231,0,1,0,1.737,1.744l7.057-7.057C24.974,9.169,25,9.14,25.032,9.111Z" transform="translate(10.136 9.251)" fill="#fff" stroke="#fff" stroke-miterlimit="10" stroke-width="3.2"/>
    <path id="Path-2" data-name="Path" d="M6.683,2.462h9.189a1.231,1.231,0,1,0,0-2.462H6.683A6.694,6.694,0,0,0,0,6.683v21.8a6.694,6.694,0,0,0,6.683,6.683h9.038a1.231,1.231,0,1,0,0-2.462H6.683a4.228,4.228,0,0,1-4.221-4.221V6.683A4.228,4.228,0,0,1,6.683,2.462Z" fill="#fff" stroke="#fff" stroke-miterlimit="10" stroke-width="3.2"/>
  </g>
</svg>
