<svg xmlns="http://www.w3.org/2000/svg" width="45.432" height="48.644" viewBox="0 0 45.432 48.644">
  <path id="settings" 
  d="M44.182,29.186,41.75,27.767a4.171,4.171,0,0,1,0-7.094l2.432-1.419A3.852,3.852,0,0,0,45.6,13.782l-2.027-3.446A3.852,3.852,0,0,0,38.1,8.918l-2.432,1.419a4.045,4.045,0,0,1-6.08-3.446V4.054A4.066,4.066,0,0,0,25.535,0H21.482a4.066,4.066,0,0,0-4.054,4.054V6.688a4.045,4.045,0,0,1-6.08,3.446L8.915,8.918a3.93,3.93,0,0,0-5.472,1.419L1.416,13.782a4.42,4.42,0,0,0,1.419,5.675l2.432,1.419a3.992,3.992,0,0,1,0,6.891L2.835,29.186a3.852,3.852,0,0,0-1.419,5.472L3.443,38.1a3.852,3.852,0,0,0,5.472,1.419l2.432-1.216a4.045,4.045,0,0,1,6.08,3.446V44.59a4.066,4.066,0,0,0,4.054,4.054h4.054a4.066,4.066,0,0,0,4.054-4.054V41.955a4.045,4.045,0,0,1,6.08-3.446L38.1,39.928a3.93,3.93,0,0,0,5.472-1.419L45.6,35.064A4.625,4.625,0,0,0,44.182,29.186ZM23.508,32.429a8.107,8.107,0,1,1,8.107-8.107A8.131,8.131,0,0,1,23.508,32.429Z" transform="translate(-0.792)" fill="#fff"/>
</svg>
